<svg version="1.1" xmlns="http://www.w3.org/2000/svg" width="512px" height="512px" transform="rotate(0) scale(1, 1)">
<path d="M0 0 C6.75316914 5.19736604 12.66196558 11.50186673 18.63751221 17.55221558 C21.18813006 20.12962819 23.76436919 22.6792307 26.34429932 25.2272644 C40.78170604 39.63066509 50.70767682 53.04796804 51.31890869 74.13546753 C50.56037884 93.95511854 41.54556238 107.04394531 27.90093994 120.36593628 C18.96974052 129.09137518 12.08463253 137.32873949 11.88140869 150.44796753 C14.29055768 176.64268276 41.63282696 202.3151722 58.61578369 220.93624878 C59.84843915 222.30279612 61.07481695 223.67560492 62.26641846 225.07809448 C67.43187433 231.12766371 73.01963093 236.73811546 78.65118408 242.34811401 C80.31567147 244.00724073 81.97474316 245.67164804 83.63336182 247.3366394 C89.20963296 252.91671368 94.84699307 258.35985603 100.88140869 263.44796753 C101.89126472 264.32471842 102.90042147 265.20227564 103.90875244 266.08078003 C112.63760625 273.55595953 121.6826203 280.56202939 130.88140869 287.44796753 C131.91660645 288.22333862 131.91660645 288.22333862 132.97271729 289.01437378 C147.12490101 299.58205835 157.64673199 306.90237843 175.88140869 305.44796753 C186.02904289 302.9218238 193.71180358 294.83013865 200.69390869 287.51046753 C212.86645904 275.10111907 225.98147666 267.57406975 243.75640869 267.13546753 C266.5188991 267.39501702 280.32500331 279.04802386 295.63751221 294.55221558 C298.18813006 297.12962819 300.76436919 299.6792307 303.34429932 302.2272644 C317.78170604 316.63066509 327.70767682 330.04796804 328.31890869 351.13546753 C327.63341372 369.04678778 320.38584229 382.15286677 307.88140869 394.44796753 C307.03707275 395.2910144 306.19273682 396.13406128 305.32281494 397.00265503 C274.00415461 426.84357035 231.234609 441.22965567 188.39312744 440.65890503 C128.5865953 438.92538236 83.93053633 401.95735538 40.487854 364.81613159 C38.85186027 363.42280197 37.20728501 362.04016784 35.56109619 360.65890503 C29.2256589 355.31987867 23.05954407 349.82965578 17.02984619 344.14718628 C16.29762848 343.45729614 15.56541077 342.76740601 14.81100464 342.05661011 C7.23263206 334.88301318 -0.17521865 327.54310506 -7.54290771 320.15402222 C-9.77400703 317.91747758 -12.01052078 315.68644453 -14.24749756 313.45578003 C-15.69703763 312.0055803 -17.14626809 310.55507102 -18.59515381 309.10421753 C-19.24940338 308.45199219 -19.90365295 307.79976685 -20.57772827 307.1277771 C-24.40844478 303.27775 -28.05730317 299.31722978 -31.60235596 295.20231628 C-33.68036745 292.79796865 -35.83732102 290.46961197 -37.99359131 288.13546753 C-42.08739339 283.64648696 -45.97328798 279.03553277 -49.78656006 274.30734253 C-51.8233326 271.80999328 -53.90173831 269.35584091 -56.00335693 266.91305542 C-62.48062136 259.36898833 -68.52423507 251.52714828 -74.5043335 243.58566284 C-76.05667444 241.52996149 -77.62098834 239.48399082 -79.18890381 237.44015503 C-109.85346929 197.29781334 -127.55151399 153.74200662 -120.99359131 102.32296753 C-115.8652926 66.72672808 -99.47144169 33.87173497 -74.11859131 8.44796753 C-73.37222412 7.67839722 -72.62585693 6.9088269 -71.85687256 6.11593628 C-52.82410628 -12.28357715 -21.82851556 -15.11965204 0 0 Z M-63.67327881 46.90499878 C-84.79298506 76.80640974 -93.20956497 112.9027216 -87.22015381 149.00265503 C-82.9955025 171.48296972 -72.61250887 190.32716933 -59.11859131 208.44796753 C-58.31246433 209.54161627 -57.50646382 210.63535825 -56.70062256 211.72921753 C-54.52766302 214.65213656 -52.32940525 217.55359804 -50.11859131 220.44796753 C-49.7193042 220.97342163 -49.32001709 221.49887573 -48.90863037 222.04025269 C-37.60001014 236.91978383 -25.7235521 251.36453185 -13.15374756 265.19796753 C-11.34481588 267.19786128 -9.5696733 269.22066185 -7.80609131 271.26046753 C1.45014928 281.85281903 11.20459209 291.93385974 21.16461182 301.86154175 C23.14691113 303.83842763 25.12373502 305.82067792 27.10015869 307.80343628 C35.45767454 316.17147222 35.45767454 316.17147222 44.25689697 324.068573 C46.81266826 326.23871243 49.24061919 328.53780556 51.69390869 330.82296753 C56.34526418 335.11992701 61.1321571 339.18986895 66.06890869 343.15890503 C68.50489017 345.14152329 70.88835901 347.17234231 73.26177979 349.22897339 C81.65011214 356.46913796 90.52548176 363.02942803 99.42730713 369.61984253 C101.71943662 371.32731026 103.99514093 373.05378707 106.26422119 374.79171753 C126.87257834 390.55493398 148.94259172 402.53439164 174.88140869 406.44796753 C175.61617432 406.5588269 176.35093994 406.66968628 177.10797119 406.78390503 C210.62228571 410.93116134 246.00349106 401.49132467 272.83013916 380.95626831 C287.01600054 369.97796016 287.01600054 369.97796016 294.88140869 354.44796753 C295.69156898 347.15652492 293.82060398 341.25882435 289.30636597 335.40582275 C287.45736931 333.36845235 285.54856917 331.42158547 283.58843994 329.49093628 C282.88297531 328.78068802 282.17751068 328.07043976 281.45066833 327.33866882 C279.96488643 325.84950444 278.47285153 324.36655503 276.97491455 322.88961792 C274.70002883 320.64151561 272.45307273 318.36796541 270.20758057 316.09054565 C268.75280067 314.63907014 267.29647032 313.1891466 265.83843994 311.74093628 C265.17560501 311.06798019 264.51277008 310.39502411 263.82984924 309.70167542 C258.26757962 304.27488193 252.32887231 300.54457929 244.44390869 299.88546753 C234.42028567 300.4252094 227.56630759 307.22250833 221.13140869 314.19796753 C209.05560551 326.72479166 194.54716219 337.39475399 176.48468018 338.60910034 C152.21292734 339.01971719 136.05520501 332.88770263 116.88140869 318.44796753 C115.87336182 317.70417847 114.86531494 316.9603894 113.82672119 316.19406128 C110.82592239 313.96933114 107.84918484 311.71654929 104.88140869 309.44796753 C104.34048584 309.03466187 103.79956299 308.6213562 103.24224854 308.19552612 C96.44404751 302.98167653 89.80084705 297.61345606 83.31890869 292.01046753 C82.49072632 291.29552124 82.49072632 291.29552124 81.64581299 290.56613159 C71.0237659 281.29255391 60.82709975 271.58037518 50.85943604 261.61129761 C49.12344914 259.87751809 47.37955759 258.15195215 45.63531494 256.42648315 C39.6650242 250.48537448 34.03542527 244.48051404 28.81768799 237.85787964 C26.78774815 235.33139671 24.64511303 232.95088863 22.44390869 230.57296753 C17.21446012 224.81155781 12.53713966 218.67165058 7.88140869 212.44796753 C7.05020508 211.34557739 7.05020508 211.34557739 6.20220947 210.22091675 C-10.1642809 188.49291272 -23.74306894 168.31934905 -20.27557373 139.96676636 C-17.69221949 122.50495957 -8.35801468 109.46194285 3.98687744 97.39718628 C4.51845459 96.87559937 5.05003174 96.35401245 5.59771729 95.81661987 C6.63033701 94.80990251 7.67059365 93.81093454 8.7197876 92.82150269 C14.17028065 87.54207686 17.43314946 81.93055987 18.19390869 74.32296753 C17.44638528 65.05367729 13.07723373 58.7347171 6.58843994 52.39328003 C5.530243 51.33003006 5.530243 51.33003006 4.45066833 50.24530029 C2.96602193 48.76095091 1.47397042 47.28397422 -0.02508545 45.81417847 C-2.30206139 43.57692714 -4.54816758 41.31174281 -6.79241943 39.04171753 C-8.24705105 37.59464517 -9.7033766 36.1492732 -11.16156006 34.70578003 C-12.15581245 33.70105148 -12.15581245 33.70105148 -13.17015076 32.67602539 C-18.75124306 27.25870604 -24.70393589 23.48140942 -32.61859131 22.94796753 C-46.88756904 23.78877384 -55.82798139 36.21724702 -63.67327881 46.90499878 Z " fill="#f61c09" transform="translate(153.11859130859375,40.552032470703125)"/>
<path d="M0 0 C0.79712402 0.33870117 1.59424805 0.67740234 2.41552734 1.02636719 C26.8538355 11.59672598 47.9006775 26.62320319 67 45 C67.57782227 45.55059082 68.15564453 46.10118164 68.75097656 46.66845703 C77.32699181 54.87211115 84.99089724 63.42200018 92 73 C92.76828125 74.04671875 93.5365625 75.0934375 94.328125 76.171875 C113.9730956 103.78473577 127.55639732 135.47104207 133 169 C133.21011719 170.18980469 133.42023438 171.37960938 133.63671875 172.60546875 C134.89944705 180.67439217 135.38605749 188.78731655 135.8125 196.9375 C135.87783936 198.00436035 135.94317871 199.0712207 136.01049805 200.17041016 C136.28764053 206.59466374 135.87707664 211.20625392 133 217 C130.09333174 220.10675792 126.97603687 222.80010241 122.64453125 223.23828125 C116.13468444 223.40888413 112.16072516 223.10751594 107 219 C102.16816351 212.84548201 102.13675419 206.06342769 101.64611816 198.51235962 C101.39858854 194.78571537 101.08312406 191.06499274 100.765625 187.34375 C100.70364929 186.61287674 100.64167358 185.88200348 100.57781982 185.12898254 C99.79524029 176.22357337 98.27720968 167.63769188 96 159 C95.77892578 158.15566406 95.55785156 157.31132812 95.33007812 156.44140625 C89.71092119 135.70077821 80.59383769 115.46166857 68 98 C67.61134766 97.46020508 67.22269531 96.92041016 66.82226562 96.36425781 C60.77842312 88.0478916 54.09301325 80.43077579 47 73 C46.19949219 72.14664063 45.39898437 71.29328125 44.57421875 70.4140625 C13.85021603 38.53350976 -30.47045588 19.36230552 -74.37890625 16.5859375 C-75.53729004 16.50891602 -76.69567383 16.43189453 -77.88916016 16.35253906 C-80.20936925 16.2037545 -82.53076218 16.07217332 -84.85302734 15.95996094 C-91.33979851 15.55871736 -95.72772925 14.90033109 -101 11 C-104.97023818 6.01175204 -105.6432003 1.92204063 -105.3828125 -4.4140625 C-104.60787647 -9.64883447 -102.06245639 -12.1810232 -98 -15.3125 C-73.85197197 -28.89576577 -23.15970731 -9.86896046 0 0 Z " fill="#f61c09" transform="translate(345,49)"/>
<path d="M0 0 C1.60029053 0.02090698 1.60029053 0.02090698 3.23291016 0.04223633 C12.62344747 0.25818352 21.6058683 1.32080285 30.75 3.4375 C31.49443359 3.60910645 32.23886719 3.78071289 33.00585938 3.95751953 C44.13242864 6.6111067 54.4785079 10.42524063 64.75 15.4375 C65.38534668 15.74558594 66.02069336 16.05367187 66.67529297 16.37109375 C104.995338 35.21349284 133.49303102 68.85053974 147.5625 109 C152.24904102 123.95152532 154.91267091 138.83590363 155.125 154.5 C155.16238281 155.54994141 155.19976562 156.59988281 155.23828125 157.68164062 C155.31742313 164.66810975 154.52033542 168.25143372 149.75 173.4375 C144.77265504 177.02581846 139.67575393 177.14202775 133.75 176.4375 C129.02429835 174.77475312 126.43601835 172.65838598 123.75 168.4375 C121.66484344 162.52183361 121.28273237 156.79099905 120.875 150.5625 C118.71831815 123.23876719 108.96603849 98.170435 90.75 77.4375 C90.07582031 76.61894531 89.40164063 75.80039063 88.70703125 74.95703125 C67.06783297 49.42034135 35.07434689 36.75346888 2.4375 33.875 C1.17929443 33.78452393 -0.07891113 33.69404785 -1.37524414 33.60083008 C-9.67803815 32.92926819 -13.83438572 32.03288345 -19.625 25.9375 C-22.02303575 20.77249991 -22.00381535 16.0372712 -21.25 10.4375 C-16.71866227 0.67769566 -9.76661009 -0.2127852 0 0 Z " fill="#f61c09" transform="translate(261.25,95.5625)"/>
<path d="M0 0 C10.3253718 7.73395859 18.6558048 15.59592212 26.00390625 26.25 C26.57753906 27.06984375 27.15117187 27.8896875 27.7421875 28.734375 C37.76706562 44.17320539 44.35945654 66.53870826 41.6015625 84.93359375 C40.02288194 89.87514415 37.09547807 92.37719426 33.00390625 95.25 C28.62569343 97.43910641 22.46867259 96.9966263 17.86328125 95.6015625 C13.31200405 93.28634757 10.90800842 89.83998936 9.00390625 85.25 C8.25691937 81.89892899 7.91292259 78.53775439 7.56640625 75.125 C5.34162939 57.15540878 -1.7589083 41.97817326 -15.99609375 30.25 C-27.69262961 22.22595466 -39.85335598 18.05311441 -53.99731445 17.10791016 C-59.27308854 16.67009179 -62.59473291 15.2298033 -66.99609375 12.25 C-70.96633193 7.26175204 -71.63929405 3.17204063 -71.37890625 -3.1640625 C-70.60397022 -8.39883447 -68.05855014 -10.9310232 -63.99609375 -14.0625 C-46.20970817 -24.06734189 -14.57747281 -10.24887569 0 0 Z " fill="#f61c09" transform="translate(310.99609375,175.75)"/>
</svg>