<svg version="1.1" xmlns="http://www.w3.org/2000/svg" width="512px" height="512px" transform="rotate(0) scale(1, 1)">
<path d="M0 0 C2.59325452 -0.00378735 5.18650702 -0.00929081 7.77975464 -0.01637268 C14.06731435 -0.03023878 20.35467195 -0.02279861 26.64222188 -0.0076971 C33.97725747 0.00924349 41.31224384 0.00594267 48.64729296 0.00220882 C61.74162785 -0.00365751 74.83586631 0.01045401 87.93017578 0.03515625 C100.6125042 0.05907832 113.29470385 0.06615701 125.97705078 0.05566406 C139.81616957 0.04423441 153.65522894 0.04234965 167.49434704 0.05676216 C168.97218795 0.05828786 170.45002887 0.05980822 171.9278698 0.06132317 C172.65483563 0.06208098 173.38180147 0.06283879 174.13079657 0.06361957 C179.23390539 0.06834622 184.33698751 0.06652254 189.4400959 0.06225777 C196.31765724 0.05679409 203.19503816 0.06765205 210.07256699 0.08921242 C212.59118362 0.09475977 215.10981737 0.09526453 217.62843513 0.09025955 C221.07662707 0.08426843 224.52428352 0.09688553 227.97242737 0.11402893 C228.95970701 0.10801889 229.94698666 0.10200884 230.96418387 0.09581667 C244.80803233 0.22025153 256.49137754 4.50134481 266.79858398 13.81420898 C277.72771592 25.41466352 280.60760215 39.31649426 280.35913086 54.765625 C279.9410584 68.51981299 279.9410584 68.51981299 286.38842773 80.06420898 C288.33195015 81.95447126 290.34283227 83.7171961 292.38842773 85.50170898 C293.92620563 87.30347208 295.42810208 89.13661915 296.88842773 91.00170898 C300.17666257 95.04154035 303.51564199 99.03262963 306.88842773 103.00170898 C311.00944407 107.8513028 315.05834127 112.75331705 319.07592773 117.68920898 C321.64989595 120.81971087 324.26433967 123.91324069 326.88842773 127.00170898 C331.79167697 132.77945001 336.6271281 138.60600574 341.38842773 144.50170898 C342.07001953 145.3317041 342.07001953 145.3317041 342.76538086 146.1784668 C353.35585721 159.08516443 359.71047822 170.04921141 359.65585327 187.15075684 C359.66038438 188.19985969 359.6649155 189.24896255 359.66958392 190.3298564 C359.68220906 193.83314935 359.68060872 197.33628647 359.67895508 200.83959961 C359.68494164 203.35666096 359.69174749 205.87372048 359.6993103 208.39077759 C359.71513481 214.5125312 359.72141835 220.63422808 359.72253506 226.75600022 C359.72348755 231.7375618 359.72760789 236.71911075 359.73393631 241.70066833 C359.75154235 255.84944129 359.76077664 269.99818397 359.75927536 284.14696795 C359.75919545 284.90888601 359.75911554 285.67080406 359.7590332 286.45581055 C359.75895144 287.21866818 359.75886968 287.98152581 359.75878544 288.76750034 C359.7579736 301.11376731 359.77708716 313.45991196 359.80530994 325.80614358 C359.83411405 338.50782217 359.84784598 351.20944127 359.84612238 363.91115332 C359.84546088 371.03215546 359.85084672 378.15302952 359.87247849 385.27400208 C359.89271513 391.97834981 359.89194006 398.68238374 359.87744522 405.38676071 C359.87536397 407.83758821 359.88001687 410.28843284 359.89216614 412.73923111 C359.96702622 428.89626803 359.5241229 444.24660398 351.63842773 458.81420898 C351.29481201 459.47171143 350.95119629 460.12921387 350.59716797 460.80664062 C340.1215361 480.34795254 323.67600209 494.59608796 302.50952148 501.43139648 C295.35612085 503.47522524 288.40520804 504.62455075 280.9467392 504.63313675 C279.0586753 504.63889847 279.0586753 504.63889847 277.1324687 504.64477658 C275.74850935 504.64399648 274.36455005 504.64311773 272.98059082 504.64215088 C271.50031091 504.64473679 270.02003169 504.64775059 268.53975344 504.65115428 C264.479958 504.6592011 260.42018026 504.66101256 256.36037779 504.66175175 C251.97843676 504.66360638 247.59650483 504.67115583 243.21456909 504.67788696 C233.6357708 504.69145489 224.0569767 504.69749276 214.47817039 504.70189762 C208.49306017 504.70466296 202.50795155 504.70890088 196.52284241 504.71340179 C179.94062146 504.72559304 163.35840179 504.73589226 146.77617645 504.73927689 C145.71535568 504.73949645 144.65453491 504.73971602 143.56156805 504.73994224 C142.49825537 504.74016052 141.43494268 504.74037879 140.3394084 504.74060369 C138.18484974 504.74104715 136.03029108 504.74149371 133.87573242 504.74194336 C132.80700427 504.74216479 131.73827612 504.74238622 130.63716227 504.74261436 C113.33036344 504.74656011 96.02360678 504.76400798 78.71682423 504.78730288 C60.93352337 504.81104524 43.15024363 504.82348007 25.36692667 504.8246448 C15.38824574 504.82556 5.40961974 504.83127314 -4.56904602 504.84946442 C-13.06830713 504.86490445 -21.56749635 504.86996295 -30.06676883 504.86172631 C-34.39874996 504.85783344 -38.73058648 504.85868233 -43.06254959 504.87278366 C-47.03784766 504.88560494 -51.01289366 504.88425376 -54.98819178 504.87219295 C-56.41690998 504.87025007 -57.84564654 504.87324822 -59.27433902 504.88203731 C-82.71737733 505.01698124 -103.88492267 497.87740328 -120.86157227 481.31030273 C-136.36593602 465.47559032 -144.76291591 446.25573299 -144.75874329 424.02828979 C-144.76241997 422.97398997 -144.76609666 421.91969015 -144.76988477 420.83344185 C-144.78089734 417.30082152 -144.78476133 413.76823062 -144.78857422 410.2355957 C-144.79484066 407.70248827 -144.80148762 405.16938176 -144.80848694 402.63627625 C-144.82769216 395.03613478 -144.83831128 387.4359985 -144.84721473 379.83583897 C-144.85160416 376.25208112 -144.8569692 372.66832473 -144.8622036 369.08456802 C-144.8792103 357.16386408 -144.89370356 345.24316103 -144.90095234 333.32244682 C-144.90286206 330.23213576 -144.90478242 327.14182471 -144.90673828 324.05151367 C-144.90722202 323.28348518 -144.90770576 322.51545669 -144.90820416 321.72415461 C-144.91650124 309.28776657 -144.94183519 296.85147482 -144.97431896 284.41512881 C-145.00743454 271.63217872 -145.02540509 258.8492775 -145.02859658 246.0662843 C-145.03075734 238.89506943 -145.03944241 231.72399504 -145.06505775 224.55282211 C-145.08910898 217.80420411 -145.09256233 211.05588198 -145.08229637 204.30721474 C-145.08180148 201.83535357 -145.08810816 199.36347988 -145.10185242 196.89165688 C-145.22082736 174.2196594 -141.27951887 162.02875087 -126.40454102 144.75952148 C-123.92425468 141.87924353 -121.5076251 138.9526825 -119.11157227 136.00170898 C-115.36369429 131.39717318 -111.54173782 126.86151707 -107.69750977 122.33764648 C-104.79912404 118.92111359 -101.94002126 115.47666061 -99.11157227 112.00170898 C-95.82333358 107.96187289 -92.48420746 103.97092017 -89.11157227 100.00170898 C-84.20693302 94.2258901 -79.37303551 88.39647919 -74.61157227 82.50170898 C-73.94472412 81.83042969 -73.27787598 81.15915039 -72.59082031 80.4675293 C-65.8686841 73.22497445 -65.55437225 67.25157635 -65.79907227 57.62670898 C-65.97568288 40.85711072 -63.80830256 26.20504888 -51.89672852 13.60327148 C-36.62278549 -0.44353424 -19.52923843 -0.0813308 0 0 Z M-33.61157227 33.50170898 C-37.59790566 39.01472325 -38.76292425 44.04672748 -38.85295105 50.71565247 C-38.86650566 51.4556279 -38.88006027 52.19560334 -38.89402562 52.95800227 C-38.93792146 55.44492633 -38.9745022 57.93189866 -39.01074219 60.41894531 C-39.03992112 62.19960816 -39.06927826 63.9802681 -39.09880066 65.76092529 C-39.35871945 82.04074814 -39.50749556 98.32204567 -39.62632275 114.6034441 C-39.70802548 125.54506811 -39.82359116 136.48417222 -40.02441406 147.42431641 C-40.19969122 156.97408682 -40.31096889 166.52209624 -40.34583551 176.07345027 C-40.36636463 181.12515283 -40.41763199 186.17210405 -40.54527855 191.22233009 C-42.25356279 212.83811509 -42.25356279 212.83811509 -34.68667603 232.00839233 C-31.03325812 235.23072509 -27.17158843 237.51387417 -22.73874855 239.50180626 C-19.72300628 240.91938925 -17.3853341 242.78493168 -14.79907227 244.87670898 C-13.86321289 245.5740918 -12.92735352 246.27147461 -11.96313477 246.98999023 C-7.50976143 250.31679102 -3.09428507 253.69356092 1.32592773 257.06420898 C2.22674072 257.75111816 3.12755371 258.43802734 4.05566406 259.14575195 C5.90999803 260.56002732 7.76424516 261.97441657 9.6184082 263.38891602 C14.04034659 266.76168658 18.46444114 270.13162575 22.88842773 273.50170898 C28.29155541 277.6178692 33.6942207 281.73463219 39.09545898 285.85327148 C40.03389648 286.56870117 40.97233398 287.28413086 41.93920898 288.02124023 C43.72195377 289.3803625 45.50451895 290.73972041 47.28686523 292.09936523 C48.89304051 293.32372388 50.50305843 294.54306296 52.11743164 295.7565918 C53.63679357 296.92412556 55.12924174 298.12750403 56.59301758 299.36401367 C58.47732494 300.91921709 60.24721687 302.32563915 62.38842773 303.50170898 C66.84302996 302.95465257 69.48877569 299.79084692 72.63842773 296.75170898 C83.79924235 286.42423519 94.77442859 280.66658417 110.39233398 281.24780273 C126.86153527 282.64349776 138.06781478 292.18109603 149.38842773 303.50170898 C154.40827255 303.40363031 157.55397522 300.27494404 161.20092773 297.18920898 C162.53639295 296.08939463 163.87369334 294.99180558 165.21264648 293.89624023 C165.9002002 293.33243652 166.58775391 292.76863281 167.29614258 292.18774414 C170.63645011 289.49600974 174.06987319 286.93419541 177.51342773 284.37670898 C183.29157719 280.07381704 189.0254068 275.7206985 194.72827148 271.31811523 C199.34983732 267.75530335 203.99533532 264.22388852 208.63842773 260.68920898 C219.34071036 252.66740725 219.34071036 252.66740725 229.85888481 244.41080761 C233.39423072 241.58574424 236.67495823 239.25953524 240.84829712 237.48112488 C246.32193445 234.85026807 250.3711373 231.87074922 253.38842773 226.50170898 C256.4801496 214.25369405 255.53676116 201.08833435 255.27678251 188.55987954 C255.1885435 183.49725372 255.1937775 178.43465318 255.18740845 173.37138367 C255.16349775 164.87447616 255.07639147 156.3801814 254.94555664 147.88427734 C254.77820772 136.99932282 254.71247935 126.11627228 254.67989159 115.23017597 C254.65128767 105.84148553 254.57934718 96.45320059 254.49877596 87.06483054 C254.47443208 84.06073959 254.45533388 81.05664613 254.43668747 78.05251503 C254.40427644 73.32328633 254.34484645 68.59509323 254.26495361 63.866436 C254.23929792 62.13723071 254.22177685 60.40788142 254.21324539 58.67850685 C254.15771423 48.81795444 254.06443236 39.4463981 246.83212852 31.87173939 C239.76992756 26.1591424 230.54321615 26.20662068 221.87573242 26.2477417 C220.34239069 26.24306173 220.34239069 26.24306173 218.77807236 26.23828721 C215.37208951 26.23034594 211.96628674 26.23661579 208.56030273 26.24291992 C206.11055396 26.24020835 203.66080599 26.23664648 201.21105957 26.2322998 C195.25955636 26.22413811 189.30812314 26.22531714 183.3566227 26.23112509 C178.51757011 26.23565098 173.67853164 26.23625047 168.83947754 26.23407745 C167.80444395 26.23361775 167.80444395 26.23361775 166.74850059 26.23314877 C165.34651597 26.23250929 163.94453136 26.23186086 162.54254675 26.23120359 C149.41145145 26.22550728 136.28038413 26.23204719 123.14929342 26.24280432 C111.89435544 26.2517392 100.63945872 26.25018696 89.38452148 26.2409668 C76.29881741 26.2302518 63.21313781 26.22605654 50.12742996 26.23219132 C48.73074596 26.23282839 47.33406194 26.23345713 45.93737793 26.23407745 C44.90671853 26.23454028 44.90671853 26.23454028 43.85523772 26.23501246 C39.02478301 26.23673571 34.1943439 26.23383228 29.3638916 26.22911835 C22.85661049 26.22290732 16.34939507 26.22736077 9.84211731 26.23890686 C7.45608143 26.24154791 5.07003899 26.24079784 2.68400574 26.23638153 C-0.57704311 26.23090285 -3.83784383 26.23778857 -7.09887695 26.2477417 C-8.03925938 26.24328026 -8.9796418 26.23881881 -9.94852066 26.23422217 C-18.72098298 26.28602448 -27.11832577 27.04219363 -33.61157227 33.50170898 Z M-66.61157227 114.50170898 C-68.31524163 116.41529476 -69.97153839 118.34704654 -71.61157227 120.31420898 C-72.35697266 121.20172852 -72.35697266 121.20172852 -73.11743164 122.10717773 C-76.88427075 126.60230455 -80.59685131 131.14076609 -84.29907227 135.68920898 C-86.87303999 138.81971027 -89.48745866 141.91326285 -92.11157227 145.00170898 C-99.18012442 153.3297352 -106.09369859 161.73337317 -112.61157227 170.50170898 C-111.8896167 171.02788818 -111.8896167 171.02788818 -111.15307617 171.56469727 C-100.55918771 179.29780998 -90.08405053 187.15768959 -79.76000977 195.24780273 C-79.09066406 195.77229004 -78.42131836 196.29677734 -77.73168945 196.8371582 C-76.19385711 198.0445443 -74.65834959 199.25489338 -73.12426758 200.46704102 C-72.30796875 201.10883301 -71.49166992 201.750625 -70.65063477 202.41186523 C-69.52842529 203.29757202 -69.52842529 203.29757202 -68.38354492 204.20117188 C-66.84354724 205.60032336 -66.84354724 205.60032336 -65.61157227 205.50170898 C-65.61157227 175.47170898 -65.61157227 145.44170898 -65.61157227 114.50170898 C-65.94157227 114.50170898 -66.27157227 114.50170898 -66.61157227 114.50170898 Z M280.38842773 114.50170898 C280.38842773 144.53170898 280.38842773 174.56170898 280.38842773 205.50170898 C286.09219947 201.69919449 291.44369578 198.00407997 296.70092773 193.68920898 C306.67562486 185.61015566 316.98387444 178.0183843 327.38842773 170.50170898 C323.04629072 164.42271717 318.25579983 158.82751376 313.34521484 153.20898438 C309.3484673 148.62967355 305.46306585 143.97626195 301.63842773 139.25170898 C298.59521864 135.5322312 295.47314253 131.88194833 292.35522461 128.22509766 C288.982542 124.25092133 285.75986085 120.18325981 282.63061523 116.01342773 C282.22069336 115.51456055 281.81077148 115.01569336 281.38842773 114.50170898 C281.05842773 114.50170898 280.72842773 114.50170898 280.38842773 114.50170898 Z M-118.61157227 199.50170898 C-118.68012195 228.18184384 -118.7331589 256.86196897 -118.76476825 285.54216973 C-118.76852003 288.93395639 -118.77240303 292.32574288 -118.77636719 295.7175293 C-118.77715412 296.3927265 -118.77794105 297.06792371 -118.77875183 297.76358144 C-118.79177881 308.6728788 -118.81541759 319.58212837 -118.84303065 330.49139746 C-118.87116045 341.69892157 -118.88754017 352.90642943 -118.89383775 364.11398923 C-118.89773963 370.40337835 -118.90687367 376.69265933 -118.92876244 382.9820137 C-118.94922421 388.90974041 -118.95538652 394.83731511 -118.95089531 400.76507378 C-118.95171619 402.93292888 -118.95762372 405.10078941 -118.96918869 407.26861382 C-119.14512244 427.99650547 -119.14512244 427.99650547 -112.42407227 447.37670898 C-111.89426758 448.36413086 -111.36446289 449.35155273 -110.81860352 450.36889648 C-110.4202832 451.07272461 -110.02196289 451.77655273 -109.61157227 452.50170898 C-105.48412883 452.50170898 -104.56462643 450.88420402 -101.61157227 448.06420898 C-97.90432805 444.57936235 -94.14848515 441.248354 -90.17407227 438.06420898 C-85.63840784 434.40599884 -81.35456057 430.55427933 -77.09228516 426.58789062 C-73.00496221 422.8068034 -68.73113983 419.30480932 -64.39282227 415.81420898 C-61.37137891 413.30199765 -58.48717149 410.67768441 -55.61157227 408.00170898 C-51.00155587 403.71213138 -46.23373991 399.69760001 -41.32641602 395.74780273 C-38.50483731 393.41340309 -35.80566515 390.981803 -33.11157227 388.50170898 C-29.55486982 385.22752475 -25.93995416 382.09528465 -22.17407227 379.06420898 C-17.63840784 375.40599884 -13.35456057 371.55427933 -9.09228516 367.58789062 C-5.00496221 363.8068034 -0.73113983 360.30480932 3.60717773 356.81420898 C7.1602786 353.85994535 10.52866454 350.73257475 13.91015625 347.58544922 C17.12141824 344.6145527 20.41470589 341.80209822 23.82592773 339.06420898 C30.30312344 333.85593758 36.33477424 328.18964097 42.38842773 322.50170898 C38.37075683 318.27216871 34.01301781 314.73552151 29.38842773 311.18920898 C28.21244019 310.28114502 28.21244019 310.28114502 27.01269531 309.35473633 C18.39205547 302.70911164 9.72834689 296.11946295 1.06176758 289.53393555 C-3.3322538 286.19367673 -7.72171369 282.84743554 -12.11157227 279.50170898 C-13.85633774 278.17224753 -15.60112944 276.84282049 -17.34594727 275.51342773 C-18.21155273 274.85391113 -19.0771582 274.19439453 -19.96899414 273.51489258 C-22.6465282 271.47507866 -25.32433211 269.43561946 -28.00219727 267.39624023 C-36.73058151 260.74845921 -45.45483105 254.09541196 -54.16821289 247.42797852 C-60.61227339 242.49830243 -67.06483609 237.57981869 -73.52026367 232.66503906 C-78.04626305 229.21915462 -82.56985797 225.77021521 -87.08813477 222.31420898 C-95.14087784 216.15814452 -103.20038968 210.01369396 -111.36157227 204.00170898 C-111.98789551 203.53853271 -112.61421875 203.07535645 -113.25952148 202.59814453 C-115.702127 200.44876298 -115.702127 200.44876298 -118.61157227 199.50170898 Z M325.13842773 204.87670898 C324.04534302 205.70090332 324.04534302 205.70090332 322.93017578 206.54174805 C317.61190331 210.55821533 312.32398864 214.61271649 307.04858398 218.68530273 C302.42701824 222.24811455 297.78152913 225.77954139 293.13842773 229.31420898 C286.71665687 234.20340162 280.29788656 239.09638561 273.88842773 244.00170898 C264.96184563 250.83241107 256.02014542 257.64321719 247.07788086 264.45336914 C242.68091505 267.80218388 238.28470411 271.15198925 233.88842773 274.50170898 C232.13843147 275.83504722 230.38843147 277.16838055 228.63842773 278.50170898 C227.33905273 279.49170898 227.33905273 279.49170898 226.01342773 280.50170898 C218.13842773 286.50170898 218.13842773 286.50170898 215.51049805 288.50390625 C213.77021879 289.82985645 212.02998401 291.15586504 210.28979492 292.48193359 C205.766441 295.9287225 201.24219022 299.37432504 196.71655273 302.81811523 C195.78262695 303.5290332 194.84870117 304.23995117 193.88647461 304.97241211 C192.11723367 306.31914775 190.34772369 307.66553006 188.57788086 309.01147461 C183.15438169 313.14058257 177.7607797 317.30627316 172.38842773 321.50170898 C176.28504574 326.30258303 180.37883287 330.43899097 185.13842773 334.37670898 C186.38019699 335.42123206 187.62107765 336.46681242 188.86108398 337.51342773 C189.76431396 338.27405518 189.76431396 338.27405518 190.68579102 339.05004883 C193.02810996 341.04709907 195.30356436 343.11317781 197.57592773 345.18920898 C200.91069888 348.21883767 204.32130412 351.10778991 207.82592773 353.93920898 C212.60127175 357.80112574 217.12510459 361.87845122 221.64233398 366.03686523 C224.3071794 368.42878196 227.03674599 370.69425782 229.82592773 372.93920898 C234.36078935 376.59677162 238.64378956 380.44787926 242.90551758 384.41333008 C247.01622049 388.21569705 251.31118357 391.7444149 255.67358398 395.25561523 C259.4541006 398.38338078 263.03323648 401.71444782 266.64233398 405.03686523 C269.3071794 407.42878196 272.03674599 409.69425782 274.82592773 411.93920898 C279.36159216 415.59741913 283.64543943 419.44913864 287.90771484 423.41552734 C291.99103174 427.19290866 296.25955892 430.69250274 300.59545898 434.17749023 C303.68789734 436.75091795 306.63408146 439.44684914 309.57592773 442.18920898 C313.97538469 446.28908927 318.48668216 450.01392848 323.38842773 453.50170898 C331.17231452 442.25831696 333.55422126 430.53190445 333.50868225 417.04212952 C333.50953668 416.10918216 333.5103911 415.1762348 333.51127142 414.21501631 C333.51291399 411.09970466 333.50742489 407.98444728 333.50195312 404.86914062 C333.50167096 402.63168336 333.50182955 400.39422601 333.50239563 398.1567688 C333.50268247 392.08918689 333.49680394 386.02162476 333.48982167 379.95404744 C333.48356938 373.61059625 333.48298285 367.2671446 333.48179626 360.9236908 C333.47904156 350.27871315 333.47279582 339.63374332 333.46386719 328.98876953 C333.45468203 318.02653032 333.4476066 307.06429307 333.44335938 296.10205078 C333.44309665 295.42584185 333.44283393 294.74963292 333.44256324 294.05293281 C333.44125816 290.66044308 333.43999447 287.26795335 333.43875134 283.8754636 C333.42839201 255.75087369 333.41071074 227.62629179 333.38842773 199.50170898 C330.75263928 199.50170898 327.28572114 203.24997899 325.13842773 204.87670898 Z M86.23999023 319.89624023 C83.54956902 322.35447441 80.79239537 324.65866507 77.95092773 326.93920898 C73.95618787 330.16114 70.14288424 333.50826394 66.38842773 337.00170898 C61.77838438 341.29126011 57.01059817 345.30581571 52.10327148 349.25561523 C49.28169278 351.59001488 46.58252062 354.02161497 43.88842773 356.50170898 C40.33172529 359.77589322 36.71680963 362.90813331 32.95092773 365.93920898 C28.4152633 369.59741913 24.13141604 373.44913864 19.86914062 377.41552734 C15.78181768 381.19661457 11.5079953 384.69860865 7.16967773 388.18920898 C4.14823437 390.70142032 1.26402695 393.32573356 -1.61157227 396.00170898 C-6.22158866 400.29128659 -10.98940462 404.30581796 -15.89672852 408.25561523 C-18.71830722 410.59001488 -21.41747938 413.02161497 -24.11157227 415.50170898 C-27.66827471 418.77589322 -31.28319037 421.90813331 -35.04907227 424.93920898 C-39.5847367 428.59741913 -43.86858396 432.44913864 -48.13085938 436.41552734 C-52.21818232 440.19661457 -56.4920047 443.69860865 -60.83032227 447.18920898 C-64.3749286 450.13640976 -67.73879748 453.25276665 -71.10693359 456.39819336 C-75.402517 460.38258405 -79.90445461 464.02721398 -84.52954102 467.62670898 C-86.8555415 469.41139148 -86.8555415 469.41139148 -87.61157227 472.50170898 C-86.05604645 473.14386994 -84.49145803 473.76406462 -82.92407227 474.37670898 C-82.05395508 474.72475586 -81.18383789 475.07280273 -80.28735352 475.43139648 C-70.06385641 478.40827024 -59.73356375 478.79244396 -49.15209961 478.75567627 C-47.73946154 478.75798642 -46.32682468 478.76116664 -44.91419029 478.76513076 C-41.06928822 478.77341128 -37.22448655 478.7693845 -33.37958431 478.76315832 C-29.21864611 478.75860697 -25.0577244 478.76563082 -20.89678955 478.77111816 C-12.76007658 478.77998531 -4.62340062 478.77810213 3.51331377 478.77229288 C10.12950474 478.76776583 16.74568537 478.767168 23.36187744 478.76934052 C24.30553622 478.76964698 25.249195 478.76995345 26.22144949 478.7702692 C28.13880905 478.77090869 30.0561686 478.77155711 31.97352815 478.77221438 C49.92900903 478.77790983 67.88446946 478.77137212 85.83994699 478.76061365 C101.22786227 478.75167886 116.61574737 478.75323112 132.00366211 478.76245117 C149.89735345 478.77316769 167.79102689 478.77736058 185.68472099 478.77122664 C187.59480667 478.77058958 189.50489235 478.76996084 191.41497803 478.76934052 C192.82447045 478.76887769 192.82447045 478.76887769 194.26243746 478.76840551 C200.8663893 478.76668272 207.47032972 478.7695847 214.07427979 478.77429962 C222.12841765 478.77992382 230.18251656 478.77835973 238.23664999 478.76773813 C242.34156277 478.76250209 246.44641072 478.76038921 250.55132294 478.76703644 C254.31652346 478.77304109 258.08159971 478.76964717 261.84678912 478.75908133 C263.83778385 478.75582537 265.82878735 478.76227767 267.81977272 478.7691958 C277.91545587 478.72565088 288.22765533 478.16601795 297.70092773 474.37670898 C299.05637695 473.8469043 299.05637695 473.8469043 300.43920898 473.30639648 C301.08245117 473.04084961 301.72569336 472.77530273 302.38842773 472.50170898 C300.80735438 468.12255188 297.36665922 465.6770998 293.88842773 462.81420898 C292.61019665 461.74234961 291.33285754 460.66942565 290.05639648 459.59545898 C289.42910645 459.06952148 288.80181641 458.54358398 288.15551758 458.00170898 C285.78813925 455.99215214 283.49215122 453.90988521 281.20092773 451.81420898 C277.86615659 448.7845803 274.45555135 445.89562806 270.95092773 443.06420898 C266.17558372 439.20229223 261.65175088 435.12496675 257.13452148 430.96655273 C254.46967607 428.57463601 251.74010948 426.30916015 248.95092773 424.06420898 C244.41606612 420.40664634 240.13306591 416.55553871 235.87133789 412.59008789 C231.76063497 408.78772092 227.46567189 405.25900306 223.10327148 401.74780273 C219.32275487 398.62003719 215.74361899 395.28897015 212.13452148 391.96655273 C209.46967607 389.57463601 206.74010948 387.30916015 203.95092773 385.06420898 C199.4152633 381.40599884 195.13141604 377.55427933 190.86914062 373.58789062 C187.63648798 370.59743899 184.32146007 367.76391891 180.88842773 365.00170898 C176.91213348 361.80239177 173.12174476 358.47585953 169.38842773 355.00170898 C164.77841134 350.71213138 160.01059538 346.69760001 155.10327148 342.74780273 C152.28169278 340.41340309 149.58252062 337.981803 146.88842773 335.50170898 C142.44702328 331.41359807 137.8566115 327.58469107 133.15405273 323.80249023 C130.21743567 321.35945711 127.43114842 318.79498525 124.63842773 316.18920898 C117.13703741 309.32498001 117.13703741 309.32498001 107.45092773 306.93920898 C98.25978872 307.39599752 92.65145087 313.91750904 86.23999023 319.89624023 Z " fill="#f61c09" transform="translate(148.611572265625,3.498291015625)"/>
<path d="M0 0 C1.41934239 1.36497761 2.82248976 2.74673491 4.22485352 4.12915039 C4.95575195 4.8471582 5.68665039 5.56516602 6.43969727 6.30493164 C26.15523591 27.03552772 31.75956602 54.89719297 31.43579102 82.56665039 C31.09479094 95.17944323 27.11109563 105.03624844 18.59985352 114.37915039 C10.90417125 121.66203744 0.77258062 125.71342169 -9.71264648 126.37915039 C-23.29817577 125.92894767 -33.45001466 119.53779086 -42.77514648 110.12915039 C-43.71874023 110.63575195 -43.71874023 110.63575195 -44.68139648 111.15258789 C-56.72312191 117.42734241 -68.2699938 119.24681625 -81.58764648 115.50415039 C-93.141689 111.49388806 -102.4393795 104.07391096 -108.15014648 93.19165039 C-113.45661721 81.67026422 -114.53642571 69.95692409 -110.74389648 57.71899414 C-105.91529219 44.81026573 -97.2431314 35.9368182 -84.77514648 30.12915039 C-79.12637505 28.10641667 -73.95623314 27.7451707 -68.02514648 27.75415039 C-67.1427832 27.75286133 -66.26041992 27.75157227 -65.35131836 27.75024414 C-59.34106953 27.8475403 -54.37137145 28.68156469 -48.86889648 31.25415039 C-45.55116726 32.6406641 -43.11487743 32.24239404 -39.77514648 31.12915039 C-34.78810603 30.64962727 -31.63536493 31.32706834 -27.35327148 33.66821289 C-24.40330916 36.3991186 -22.95924888 39.51843426 -22.50180054 43.5206604 C-22.39873722 46.42483386 -22.3865427 49.31695071 -22.40405273 52.22290039 C-22.3866752 54.40909991 -22.36909077 56.59529779 -22.35131836 58.78149414 C-22.34123771 62.21137459 -22.33765244 65.64115025 -22.33935547 69.07104492 C-22.33578368 72.39281213 -22.30843972 75.71377624 -22.27905273 79.03540039 C-22.28723526 80.05742554 -22.29541779 81.07945068 -22.30384827 82.13244629 C-22.24138685 88.11495267 -21.7485642 91.5625392 -17.77514648 96.12915039 C-14.36057645 98.71951387 -10.94232478 98.5602378 -6.77514648 98.12915039 C-2.21403838 95.80387959 1.2402011 92.90473858 3.22485352 88.12915039 C3.81650686 84.16194716 3.79390265 80.25870106 3.72485352 76.25415039 C3.70563843 74.58002075 3.70563843 74.58002075 3.68603516 72.87207031 C3.19165481 52.56433381 -3.81627234 35.39154925 -18.08374023 20.76196289 C-32.90067914 6.67994415 -51.31115398 0.58374778 -71.54858398 0.91821289 C-90.98369017 1.63280372 -108.34046836 10.71695478 -121.64624023 24.59399414 C-135.61767678 41.23153968 -140.41711804 60.91898277 -138.77514648 82.12915039 C-136.35222911 100.29714785 -126.90621808 117.31142001 -112.40014648 128.56665039 C-106.56162499 132.88274793 -100.49357934 136.37639941 -93.77514648 139.12915039 C-92.77870117 139.54165039 -91.78225586 139.95415039 -90.75561523 140.37915039 C-75.04678308 145.84969895 -57.86580542 144.51289684 -42.35327148 139.26586914 C-37.73467405 137.79860729 -33.52950835 136.84947168 -28.77514648 138.12915039 C-24.81060728 140.46552709 -22.24127087 142.73077722 -20.77514648 147.12915039 C-20.40793439 151.60913791 -20.36691946 154.18280593 -22.15014648 158.31665039 C-30.73655 167.51636844 -47.01455765 170.61484906 -59.12890625 171.25317383 C-88.54462937 172.15510383 -114.49747096 164.71303732 -136.33374023 144.49633789 C-143.99649868 137.22813883 -149.58639804 129.30924378 -154.77514648 120.12915039 C-155.24823242 119.30801758 -155.72131836 118.48688477 -156.20874023 117.64086914 C-168.52427976 94.81299992 -169.60088687 67.7982606 -162.70874023 43.17993164 C-154.93062575 18.20268611 -138.18451794 -2.23475781 -115.25952148 -14.84350586 C-77.37788915 -34.49355964 -31.3543038 -29.46712304 0 0 Z M-80.52514648 59.44165039 C-84.37110159 64.0354301 -86.39293532 67.90453909 -86.12280273 74.04711914 C-85.2384103 79.34353678 -82.74760016 83.56499483 -78.71264648 87.06665039 C-73.57784138 90.67193908 -68.85513095 90.63343705 -62.77514648 90.12915039 C-57.32995918 88.348993 -53.99288256 84.74088939 -50.77514648 80.12915039 C-49.10439484 75.11689545 -48.7098313 69.82458147 -50.68139648 64.83618164 C-53.85501532 59.4145828 -57.74584333 56.13891811 -63.77514648 54.12915039 C-70.56424119 53.60691234 -75.2926839 55.04162504 -80.52514648 59.44165039 Z " fill="#f61c09" transform="translate(323.775146484375,84.870849609375)"/>
</svg>