<svg version="1.1" xmlns="http://www.w3.org/2000/svg" width="512px" height="512px" transform="rotate(0) scale(1, 1)">
<path d="M0 0 C2.57939866 1.39647789 5.10067847 2.88175537 7.625 4.375 C9.39253054 5.39444143 11.16081765 6.41257173 12.9296875 7.4296875 C17.01382802 9.78984684 21.08475708 12.1712009 25.1484375 14.56640625 C31.5767352 18.35398958 38.03421373 22.08936108 44.5 25.8125 C45.57926758 26.43447266 46.65853516 27.05644531 47.77050781 27.69726562 C49.96114966 28.9596694 52.151905 30.22187623 54.34277344 31.48388672 C59.77159942 34.61180148 65.19819281 37.74358448 70.625 40.875 C72.79165583 42.12501879 74.9583225 43.37501878 77.125 44.625 C213.625 123.375 213.625 123.375 350.125 202.125 C351.19878906 202.74439453 352.27257812 203.36378906 353.37890625 204.00195312 C355.53289945 205.2448409 357.68654872 206.48832493 359.83984375 207.73242188 C364.8567447 210.63006224 369.87657214 213.52212882 374.90942383 216.39196777 C376.67615824 217.39978023 378.44175502 218.4095578 380.20703125 219.41992188 C382.41053709 220.68032721 384.61611691 221.93711698 386.82421875 223.18945312 C407.92699815 235.28099446 407.92699815 235.28099446 411.625 246.375 C412.40114625 256.38855905 411.89703394 263.24855928 405.4375 271 C398.21578643 277.09833591 389.86960395 281.64409181 381.6875 286.3125 C379.9576544 287.30492138 378.22781157 288.29734765 376.49813843 289.29006958 C374.71560128 290.31264091 372.93231803 291.33390134 371.14892578 292.35498047 C365.63310212 295.51469911 360.12979254 298.69611722 354.625 301.875 C352.45839031 303.12509875 350.2917235 304.37509851 348.125 305.625 C347.0525 306.24375 345.98 306.8625 344.875 307.5 C246.29166667 364.375 147.70833333 421.25 49.125 478.125 C47.51431641 479.0543335 47.51431641 479.0543335 45.87109375 480.00244141 C43.71766491 481.24467962 41.56402116 482.48654537 39.41015625 483.72802734 C34.38293245 486.62629803 29.35778998 489.52798072 24.34057617 492.44354248 C22.57524789 493.46915628 20.80921529 494.49354664 19.04296875 495.51757812 C16.8358368 496.79771466 14.63001077 498.08010666 12.42578125 499.36523438 C-7.67283891 511.01008152 -7.67283891 511.01008152 -20.375 509.375 C-28.31264216 507.03966866 -33.16929939 501.28436528 -37.375 494.375 C-38.5900776 490.7297672 -38.51669301 487.38917033 -38.50922108 483.5943346 C-38.51274942 482.38723865 -38.51274942 482.38723865 -38.51634905 481.15575692 C-38.52305106 478.43624748 -38.52258046 475.71678569 -38.52217102 472.99726868 C-38.52546889 471.03697534 -38.5291943 469.07668267 -38.5333125 467.11639088 C-38.54334927 461.71146369 -38.54705198 456.3065476 -38.54970181 450.9016124 C-38.55359988 445.07936703 -38.56317853 439.25713049 -38.57191467 433.43489075 C-38.59169278 419.36553311 -38.60174683 405.29617474 -38.61064246 391.22680667 C-38.61502301 384.6056177 -38.62039041 377.98442953 -38.62563133 371.3632412 C-38.64264467 349.36050362 -38.65716467 327.35776654 -38.66438007 305.35502338 C-38.66485483 303.93182632 -38.66533072 302.50862925 -38.66580774 301.08543218 C-38.66604411 300.37964857 -38.66628049 299.67386495 -38.66652403 298.94669395 C-38.66772524 295.37079401 -38.66894068 291.79489407 -38.67016602 288.21899414 C-38.67040617 287.50934375 -38.67064632 286.79969336 -38.67089374 286.06853841 C-38.67878747 263.05761983 -38.70222054 240.04675277 -38.73472196 217.03585669 C-38.76901467 192.71236381 -38.78873069 168.38890108 -38.79202431 144.06538361 C-38.79409824 130.80435876 -38.80297589 117.54340647 -38.82848549 104.28240395 C-38.85015615 92.99079434 -38.8582608 81.69927885 -38.84851871 70.40765081 C-38.84396353 64.64468198 -38.845931 58.88190752 -38.86528015 53.11896515 C-38.88283748 47.84423281 -38.88197456 42.56983769 -38.86638286 37.29510214 C-38.86399548 35.38590595 -38.86838856 33.47668686 -38.88021151 31.56752578 C-38.89528535 28.97289702 -38.88568958 26.3794701 -38.86998463 23.7848711 C-38.88020683 23.04307632 -38.89042904 22.30128154 -38.90096101 21.53700814 C-38.81155283 14.77229428 -36.39628887 9.71543974 -32 4.625 C-22.45684909 -3.55484364 -11.62626539 -5.67761181 0 0 Z " fill="#df4b15" transform="translate(69.375,2.625)"/>
</svg>