<svg version="1.1" xmlns="http://www.w3.org/2000/svg" width="512px" height="512px" transform="rotate(0) scale(1, 1)">
<path d="M0 0 C1.45108658 0.00273422 1.45108658 0.00273422 2.93148804 0.00552368 C17.26440977 0.05095174 31.21023917 0.55983928 45.3125 3.3125 C46.65803955 3.55395752 46.65803955 3.55395752 48.03076172 3.80029297 C107.84088904 14.62287989 165.35495829 48.68064457 202.3125 97.3125 C202.72918945 97.85277832 203.14587891 98.39305664 203.57519531 98.94970703 C211.2584873 108.9447116 218.00092968 119.40459036 224.3125 130.3125 C224.70679199 130.98974121 225.10108398 131.66698242 225.50732422 132.36474609 C238.68961173 155.2833756 247.29510918 180.85822563 252.625 206.6875 C252.77243652 207.39817627 252.91987305 208.10885254 253.07177734 208.84106445 C256.05713787 224.48358366 256.6873098 240.11919606 256.625 256 C256.62226578 257.45108658 256.62226578 257.45108658 256.61947632 258.93148804 C256.57404826 273.26440977 256.06516072 287.21023917 253.3125 301.3125 C253.15152832 302.20952637 252.99055664 303.10655273 252.82470703 304.03076172 C242.00212011 363.84088904 207.94435543 421.35495829 159.3125 458.3125 C158.77222168 458.72918945 158.23194336 459.14587891 157.67529297 459.57519531 C147.6802884 467.2584873 137.22040964 474.00092968 126.3125 480.3125 C125.63525879 480.70679199 124.95801758 481.10108398 124.26025391 481.50732422 C101.3416244 494.68961173 75.76677437 503.29510918 49.9375 508.625 C49.22682373 508.77243652 48.51614746 508.91987305 47.78393555 509.07177734 C32.14141634 512.05713787 16.50580394 512.6873098 0.625 512.625 C-0.34239105 512.62317719 -1.3097821 512.62135437 -2.30648804 512.61947632 C-16.63940977 512.57404826 -30.58523917 512.06516072 -44.6875 509.3125 C-45.58452637 509.15152832 -46.48155273 508.99055664 -47.40576172 508.82470703 C-107.21588904 498.00212011 -164.72995829 463.94435543 -201.6875 415.3125 C-202.10418945 414.77222168 -202.52087891 414.23194336 -202.95019531 413.67529297 C-210.6334873 403.6802884 -217.37592968 393.22040964 -223.6875 382.3125 C-224.08179199 381.63525879 -224.47608398 380.95801758 -224.88232422 380.26025391 C-238.06461173 357.3416244 -246.67010918 331.76677437 -252 305.9375 C-252.14743652 305.22682373 -252.29487305 304.51614746 -252.44677734 303.78393555 C-255.43213787 288.14141634 -256.0623098 272.50580394 -256 256.625 C-255.99817719 255.65760895 -255.99635437 254.6902179 -255.99447632 253.69351196 C-255.94904826 239.36059023 -255.44016072 225.41476083 -252.6875 211.3125 C-252.44604248 209.96696045 -252.44604248 209.96696045 -252.19970703 208.59423828 C-241.37712011 148.78411096 -207.31935543 91.27004171 -158.6875 54.3125 C-158.14722168 53.89581055 -157.60694336 53.47912109 -157.05029297 53.04980469 C-147.0552884 45.3665127 -136.59540964 38.62407032 -125.6875 32.3125 C-125.01025879 31.91820801 -124.33301758 31.52391602 -123.63525391 31.11767578 C-100.7166244 17.93538827 -75.14177437 9.32989082 -49.3125 4 C-48.60182373 3.85256348 -47.89114746 3.70512695 -47.15893555 3.55322266 C-31.51641634 0.56786213 -15.88080394 -0.0623098 0 0 Z M-152.875 120.625 C-191.19544279 164.15342243 -206.93181056 219.46791581 -203.48535156 276.66748047 C-198.9308458 328.64899999 -171.59644889 377.61228428 -132.73046875 411.828125 C-88.09114124 448.27307018 -33.76157275 464.87930481 23.62109375 459.8515625 C75.31970385 454.07781199 125.40966545 426.61329892 158.3125 386.3125 C193.38101826 341.58759847 209.87456435 286.93433215 203.54321289 230.24291992 C196.42762374 177.87472328 168.4162901 127.49854898 126.30078125 95.203125 C50.22665623 38.17283305 -52.05661896 37.83793798 -152.875 120.625 Z " fill="#295828" transform="translate(255.6875,-0.3125)"/>
<path d="M0 0 C2.98699796 1.57492255 5.9303482 3.22254759 8.875 4.875 C10.87075604 5.97457152 12.86687273 7.07348859 14.86328125 8.171875 C24.75181017 13.64162598 34.5732826 19.22258692 44.29296875 24.98706055 C50.60388237 28.72928206 56.95533145 32.39949096 63.3125 36.0625 C64.41827393 36.69978027 65.52404785 37.33706055 66.66333008 37.99365234 C70.0669253 39.9546138 73.47091889 41.91488215 76.875 43.875 C83.39854168 47.63205369 89.92084834 51.39116217 96.4375 55.16015625 C100.80327286 57.68445144 105.17949499 60.18935156 109.5625 62.68359375 C111.70843506 63.91388508 113.85427214 65.14434734 116 66.375 C116.97727051 66.92615479 117.95454102 67.47730957 118.96142578 68.04516602 C135.22001562 77.41223729 135.22001562 77.41223729 137.875 85.875 C138.79712273 92.08884974 138.24782705 96.88262678 134.515625 102.01953125 C128.09200924 109.28433479 119.45485588 113.45891336 111.05859375 118.0234375 C105.43255657 121.09336511 99.9029052 124.32002781 94.375 127.5625 C85.93260976 132.50718401 77.47696084 137.42728813 69 142.3125 C67.92041016 142.93471436 66.84082031 143.55692871 65.72851562 144.19799805 C63.5381748 145.46011517 61.34774498 146.72207785 59.15722656 147.98388672 C54.80940255 150.48896294 50.46300414 152.99650489 46.11694336 155.50463867 C43.9645339 156.74641959 41.81170512 157.98747399 39.65844727 159.2277832 C34.63730049 162.12095817 29.61989264 165.02001375 24.61636353 167.94354248 C22.85912618 168.96986345 21.10065213 169.99403272 19.34179688 171.01757812 C17.14661715 172.29589564 14.9537265 173.57815612 12.76367188 174.86523438 C-7.47740632 186.63027983 -7.47740632 186.63027983 -18.125 184.875 C-22.37966719 183.53308271 -24.76900712 181.35607146 -27.4375 177.75 C-31.77949876 168.96718364 -31.41324513 159.05327005 -31.38378906 149.49609375 C-31.38650467 148.07243675 -31.39006878 146.64878115 -31.39440918 145.22512817 C-31.40346775 141.38629281 -31.40001611 137.54756586 -31.39365101 133.70872879 C-31.38855697 129.67487565 -31.39329187 125.64103127 -31.39642334 121.60717773 C-31.40005312 114.83543242 -31.3952899 108.06373085 -31.38574219 101.29199219 C-31.37485954 93.48370704 -31.37838582 85.67552638 -31.389395 77.86724377 C-31.39849612 71.14081782 -31.39973938 64.41442317 -31.39451766 57.68799305 C-31.39141345 53.68039553 -31.39094573 49.67284698 -31.39759064 45.66525269 C-31.40340473 41.89603708 -31.39929357 38.12695506 -31.38780212 34.35775375 C-31.38393356 32.32966033 -31.38980638 30.3015555 -31.39605713 28.27346802 C-31.35107291 18.48032332 -31.1232691 8.98076905 -25.125 0.875 C-17.10720529 -5.50651007 -8.8217992 -4.45365832 0 0 Z " fill="#295828" transform="translate(224.125,165.125)"/>
</svg>