<svg version="1.1" xmlns="http://www.w3.org/2000/svg" width="100px" height="100px" transform="rotate(0) scale(1, 1)">
<path d="M0 0 C6.79791818 3.39895909 13.32113967 6.85223793 19.8125 10.75 C21.72621637 11.88990421 23.64029943 13.02919297 25.5546875 14.16796875 C26.57916992 14.77817871 27.60365234 15.38838867 28.65917969 16.01708984 C34.26276399 19.34304071 39.88471306 22.63760443 45.50717163 25.93151855 C47.40136381 27.04132777 49.29507419 28.15195537 51.1887207 29.26269531 C56.77576398 32.53816298 62.36614594 35.80554667 68 39 C68 39.66 68 40.32 68 41 C67.10023437 41.49886719 66.20046875 41.99773438 65.2734375 42.51171875 C57.3902534 46.90346477 49.57510385 51.39840876 41.8125 56 C40.91684326 56.53093262 40.02118652 57.06186523 39.09838867 57.60888672 C38.16099854 58.16463379 37.2236084 58.72038086 36.2578125 59.29296875 C29.56962967 63.25799639 22.87275718 67.20810826 16.16928101 71.1472168 C14.84979727 71.92307055 13.53080539 72.69976141 12.21231079 73.47729492 C10.36539273 74.566339 8.51688974 75.65264211 6.66796875 76.73828125 C5.59828857 77.36774658 4.5286084 77.99721191 3.42651367 78.64575195 C1 80 1 80 0 80 C0 53.6 0 27.2 0 0 Z " fill="#ec4d14" transform="translate(20,10)"/>
</svg>