<svg version="1.1" xmlns="http://www.w3.org/2000/svg" width="512px" height="512px" transform="rotate(0) scale(1, 1)">
<path d="M0 0 C1.0482193 -0.00101212 1.0482193 -0.00101212 2.11761475 -0.00204468 C57.45853215 0.08210309 110.51412693 20.49617039 151.8125 57.25 C152.32119629 57.69698242 152.82989258 58.14396484 153.35400391 58.60449219 C189.33386996 90.28502084 213.57841303 133.58102444 223.8125 180.25 C224.13009277 181.66369873 224.13009277 181.66369873 224.45410156 183.10595703 C227.66731601 198.05427877 228.20026668 212.83224761 228.25 228.0625 C228.25939606 229.40471619 228.25939606 229.40471619 228.26898193 230.77404785 C228.3468924 248.37050943 226.35597383 265.58743745 222.125 282.6875 C221.87153809 283.72189209 221.61807617 284.75628418 221.35693359 285.82202148 C217.32941605 301.66270459 211.66793665 316.86457728 203.89404297 331.24755859 C202.73595909 333.39171298 201.60513007 335.5492534 200.47265625 337.70703125 C195.05002785 347.89014748 188.89434371 357.15390102 181.8125 366.25 C180.79736328 367.58417969 180.79736328 367.58417969 179.76171875 368.9453125 C174.20731131 376.09819331 168.03974189 382.6854951 161.8125 389.25 C161.09964844 390.00539063 160.38679688 390.76078125 159.65234375 391.5390625 C154.42803104 396.92428833 148.70631496 401.61744558 142.8125 406.25 C141.88566406 406.9821875 140.95882813 407.714375 140.00390625 408.46875 C107.64937182 433.40413067 69.29262232 449.12963438 28.8125 454.25 C28.10005127 454.34571289 27.38760254 454.44142578 26.65356445 454.54003906 C-10.34058967 458.93351315 -49.17994903 453.81867855 -83.76269531 440.17431641 C-86.27530592 439.21652908 -88.81298849 438.38272508 -91.3671875 437.54296875 C-98.39347494 435.01527205 -104.40067595 432.68362264 -107.80078125 425.671875 C-109.58228782 421.2046187 -110.91893995 416.61386101 -112.27880859 412.00439453 C-119.16460659 391.1323975 -134.69485573 372.04933792 -151.21484375 357.96875 C-157.59299273 352.41155089 -157.59299273 352.41155089 -158.1875 348.25 C-157.51203125 347.71890625 -156.8365625 347.1878125 -156.140625 346.640625 C-154.80257812 345.58101563 -154.80257812 345.58101563 -153.4375 344.5 C-152.55578125 343.80390625 -151.6740625 343.1078125 -150.765625 342.390625 C-148.42902752 340.45054103 -146.2936438 338.43487814 -144.1875 336.25 C-141.16275906 337.58134215 -139.31324277 338.95053618 -137.19921875 341.48046875 C-136.38614258 342.43856445 -136.38614258 342.43856445 -135.55664062 343.41601562 C-135.00169922 344.08310547 -134.44675781 344.75019531 -133.875 345.4375 C-104.71948966 380.19584863 -61.71139077 401.31468186 -16.79003906 406.05151367 C31.18009504 409.7100239 78.30471196 395.95560135 115.375 365 C149.60670773 335.52874705 170.93363112 296.90642384 177.8125 252.25 C178.00457031 251.04988281 178.19664062 249.84976563 178.39453125 248.61328125 C181.48469963 222.3108417 178.32394504 195.22937643 169.8125 170.25 C169.49224854 169.27788574 169.49224854 169.27788574 169.16552734 168.28613281 C157.77671907 134.04315887 134.71016262 104.52483448 105.8125 83.25 C105.25675293 82.83395508 104.70100586 82.41791016 104.12841797 81.98925781 C68.23189427 55.41719067 20.51553438 44.52141989 -23.5234375 50.49609375 C-50.09371522 54.56227271 -77.17105519 63.47388509 -99.1875 79.25 C-100.58742187 80.24386719 -100.58742187 80.24386719 -102.015625 81.2578125 C-129.11797003 101.05245717 -150.23176097 125.68766863 -163.5 156.75 C-163.7889917 157.42321289 -164.0779834 158.09642578 -164.37573242 158.79003906 C-167.89721439 167.42978029 -170.36833569 176.32264635 -173.1875 185.25 C-189.6875 185.25 -206.1875 185.25 -223.1875 185.25 C-218.51173408 163.0401119 -218.51173408 163.0401119 -216 155.8125 C-215.70520752 154.95035889 -215.41041504 154.08821777 -215.10668945 153.19995117 C-203.40622432 119.8804448 -184.36174933 91.74898434 -160.1875 66.25 C-159.12015625 65.11884766 -159.12015625 65.11884766 -158.03125 63.96484375 C-144.52795417 50.0464876 -128.01804984 38.75700922 -111.1875 29.25 C-110.54651367 28.88165039 -109.90552734 28.51330078 -109.24511719 28.13378906 C-75.94987963 9.11971828 -38.20293515 0.03348645 0 0 Z " fill="#f61c09" transform="translate(284.1875,1.75)"/>
<path d="M0 0 C0.72111865 -0.00367669 1.44223729 -0.00735338 2.18520802 -0.01114148 C4.60795082 -0.02217783 7.03065074 -0.02602205 9.45341492 -0.02983093 C11.18794389 -0.03609555 12.92247152 -0.04274235 14.65699768 -0.04974365 C19.37400994 -0.06715179 24.09101207 -0.07770464 28.80804849 -0.08594918 C31.75444162 -0.09109914 34.70083161 -0.09717483 37.64722252 -0.10346031 C46.86402481 -0.12251083 56.08081909 -0.13674296 65.29763728 -0.14507228 C75.94044639 -0.15484891 86.58304776 -0.18118014 97.22578365 -0.22157317 C105.45007547 -0.25171748 113.67430768 -0.2665395 121.89865369 -0.26985329 C126.81174412 -0.27220544 131.72461258 -0.2811875 136.63764381 -0.30631447 C141.25959937 -0.32957112 145.8811864 -0.33383815 150.50318527 -0.32355309 C152.19870287 -0.32305705 153.89423847 -0.32939747 155.5897007 -0.34310913 C157.9065967 -0.36079688 160.22216559 -0.35373847 162.5390625 -0.34057617 C163.83489415 -0.34296453 165.1307258 -0.34535288 166.46582508 -0.34781361 C170.58583188 0.23582521 172.74643728 1.549989 175.96000671 4.14717102 C178.94504947 9.38605009 178.4592545 15.29883976 177.96000671 21.14717102 C176.62485056 25.3751655 175.74818907 26.6440759 172.02250671 29.02217102 C168.96000671 30.14717102 168.96000671 30.14717102 164.96000671 30.14717102 C164.93422546 31.27510071 164.90844421 32.4030304 164.88188171 33.56513977 C163.57228285 74.40880372 148.07195847 113.87408342 118.72172546 142.71748352 C113.81410326 147.03508042 108.43370398 150.58504545 102.96000671 154.14717102 C101.97000671 154.80717102 100.98000671 155.46717102 99.96000671 156.14717102 C100.05209007 158.53103596 100.05209007 158.53103596 100.96000671 161.14717102 C103.29045649 163.11418525 103.29045649 163.11418525 106.27250671 164.77217102 C136.33518006 183.81543029 153.50472122 218.39874638 161.21000671 252.20967102 C163.68922058 263.66681466 165.38695608 275.40606336 164.96000671 287.14717102 C166.01188171 287.04404602 167.06375671 286.94092102 168.14750671 286.83467102 C171.96000671 287.14717102 171.96000671 287.14717102 174.83500671 289.45967102 C179.15744859 294.92628869 178.56766804 301.46289643 177.96000671 308.14717102 C176.5360198 311.96796759 174.35818839 313.88171657 170.96000671 316.14717102 C167.80932045 316.40164661 167.80932045 316.40164661 163.83735657 316.40786743 C163.10736525 316.41169298 162.37737393 316.41551853 161.62526166 316.41946 C159.17248031 316.42980131 156.71993255 316.42579574 154.26713562 316.42182922 C152.51127912 316.42617511 150.75542452 316.43135785 148.99957275 316.43731689 C144.22475228 316.45073234 139.45001084 316.45128267 134.67517519 316.4487536 C130.69150826 316.44768547 126.70785742 316.45256326 122.72419393 316.45735902 C113.32654902 316.4684633 103.92894408 316.46888663 94.53129578 316.46284485 C84.83204033 316.45680508 75.13292994 316.46911406 65.43369925 316.49041492 C57.11090246 316.50802179 48.78815189 316.51403367 40.46533716 316.51077718 C35.49252848 316.5089625 30.51982325 316.51161875 25.5470314 316.52549171 C20.87011877 316.53805034 16.19343244 316.5361446 11.51652336 316.52308083 C9.79963416 316.52071109 8.08272914 316.52346392 6.36585808 316.53170395 C4.02251632 316.54213991 1.67993826 316.5340966 -0.66337585 316.52139282 C-1.97487799 316.52156056 -3.28638012 316.52172831 -4.63762474 316.52190113 C-8.29420087 316.1191731 -10.14445724 315.37387144 -13.03999329 313.14717102 C-15.57976394 309.33751504 -15.40753274 306.18881593 -15.41499329 301.77217102 C-15.43948547 301.0167804 -15.46397766 300.26138977 -15.48921204 299.48310852 C-15.51000578 295.51843412 -15.32793675 293.59863794 -13.14155579 290.17060852 C-10.44575929 287.5750275 -9.6925184 287.16022152 -5.91499329 287.08467102 C-4.96624329 287.10529602 -4.01749329 287.12592102 -3.03999329 287.14717102 C-3.01421204 286.1030304 -2.98843079 285.05888977 -2.96186829 283.98310852 C-2.03942866 257.06774881 4.57859299 230.63651787 17.96000671 207.14717102 C18.29000671 206.56403137 18.62000671 205.98089172 18.96000671 205.38008118 C23.32999552 197.75607239 28.25461947 190.81975724 33.96000671 184.14717102 C34.64707703 183.31443665 35.33414734 182.48170227 36.04203796 181.62373352 C42.79345697 173.71666622 50.83043618 167.16843481 59.96000671 162.14717102 C60.62000671 162.14717102 61.28000671 162.14717102 61.96000671 162.14717102 C62.44095838 159.32415547 62.44095838 159.32415547 61.96000671 156.14717102 C59.51785069 153.82749758 59.51785069 153.82749758 56.21000671 151.95967102 C26.77262723 133.10116037 8.93584759 99.68558676 1.29594421 66.24726868 C-1.26455124 54.44558209 -3.26805381 42.25338363 -3.03999329 30.14717102 C-4.09186829 30.08529602 -5.14374329 30.02342102 -6.22749329 29.95967102 C-10.88092164 28.96795678 -12.16881067 27.90554419 -15.03999329 24.14717102 C-15.75698895 21.12437 -15.74033826 18.24133785 -15.66499329 15.14717102 C-15.68432922 14.35310852 -15.70366516 13.55904602 -15.72358704 12.74092102 C-15.68763072 8.42616323 -15.42990225 6.64459641 -12.68843079 3.14717102 C-8.43505772 -0.06481572 -5.20359897 0.01717577 0 0 Z M10.96000671 30.14717102 C10.96000671 53.18871909 16.85934677 75.49188889 26.96000671 96.14717102 C27.48078796 97.24029602 28.00156921 98.33342102 28.53813171 99.45967102 C37.14917039 116.51454373 49.48254584 131.60110414 65.78349304 141.66230774 C70.16317009 144.40082999 73.87111511 147.12375922 75.69438171 152.18623352 C76.53821204 158.41568684 76.73269068 163.84183419 72.96000671 169.14717102 C70.4494756 171.37455953 67.71616765 173.23770272 64.96000671 175.14717102 C33.97607698 197.48055393 18.19449315 230.65931993 11.97392273 267.86714172 C10.97955687 274.49258816 10.96000671 280.23338184 10.96000671 287.14717102 C57.16000671 287.14717102 103.36000671 287.14717102 150.96000671 287.14717102 C151.00203931 274.783818 151.00203931 274.783818 149.46000671 262.77217102 C149.28549988 261.8500885 149.11099304 260.92800598 148.93119812 259.97798157 C142.90103256 230.20497739 128.67292061 197.01635787 103.03129578 178.77510071 C100.04735415 176.83441121 97.03196991 175.04081642 93.92094421 173.30732727 C89.38958866 170.00147025 87.52991435 166.19883851 86.02250671 160.77217102 C85.921285 154.90131136 87.3944319 150.20198797 90.96000671 145.52217102 C93.54069815 143.47912363 96.00999748 141.93196873 98.83500671 140.27217102 C110.11225516 133.28883424 120.16972128 122.49886958 126.96000671 111.14717102 C127.60067078 110.10431946 128.24133484 109.0614679 128.90141296 107.98701477 C139.34041888 90.6251687 146.3459855 71.67462576 149.83500671 51.70967102 C149.95521179 51.03758606 150.07541687 50.3655011 150.19926453 49.67304993 C151.23665986 43.02312102 150.96000671 37.09704841 150.96000671 30.14717102 C104.76000671 30.14717102 58.56000671 30.14717102 10.96000671 30.14717102 Z " fill="#f61c09" transform="translate(15.039993286132813,193.8528289794922)"/>
<path d="M0 0 C3.28924312 3.21909183 4.79114115 4.8262668 5.60127258 9.3789978 C5.59016953 10.60921661 5.57906647 11.83943542 5.56762695 13.10693359 C5.56835709 13.79055969 5.56908722 14.47418579 5.56983948 15.17852783 C5.56637917 17.41932881 5.52759894 19.6580036 5.48828125 21.8984375 C5.47894741 23.45926783 5.47183399 25.02011288 5.46684265 26.58096313 C5.44781731 30.67483474 5.39875665 34.76780923 5.34332275 38.86132812 C5.29203284 43.0441474 5.26930794 47.22711266 5.24414062 51.41015625 C5.19063214 59.607181 5.10537524 67.80347868 5 76 C5.91072266 76.42732422 5.91072266 76.42732422 6.83984375 76.86328125 C11.44718293 79.28775811 14.57934064 83.04048165 16.57542419 87.83097839 C17 90 17 90 16.57118225 92.64619446 C15.88913734 97.12725525 15.72704899 100.9465181 18.19431686 104.92663193 C22.45990307 110.32541978 27.52796695 114.99123944 32.49609375 119.73046875 C34.08843335 121.29599308 35.67783576 122.86451003 37.26441956 124.43586731 C41.43323108 128.54957539 45.63913652 132.62316204 49.85461426 136.68896484 C54.14968573 140.84377003 58.41092756 145.03293778 62.67382812 149.22070312 C67.4584408 153.91951003 72.24600546 158.61473706 77.06163025 163.28178406 C77.79037857 163.98923264 78.51912689 164.69668121 79.2699585 165.42556763 C80.63443708 166.74919795 82.0009516 168.07073386 83.36982727 169.38981628 C84.26799667 170.26186707 84.26799667 170.26186707 85.18431091 171.15153503 C85.70696754 171.65638522 86.22962416 172.16123541 86.76811886 172.68138409 C88.82337175 174.88134404 89.02233505 176.1935704 89.375 179.25 C88.88072704 184.19272958 87.46171699 185.53828301 84 189 C80.42557286 190.78721357 76.75906892 190.04416946 73 189 C70.14036641 187.16694562 67.96620576 184.85316109 65.66699219 182.36889648 C64.65758827 181.32992218 64.65758827 181.32992218 63.62779236 180.2699585 C62.17521667 178.77036141 60.73184743 177.26180256 59.29686737 175.74535942 C57.01980075 173.34252412 54.71620634 170.96827427 52.40338135 168.59986877 C45.83593982 161.86466644 39.31910247 155.0814203 32.82080078 148.27954102 C28.83757947 144.11413477 24.82280344 139.9812945 20.78787994 135.86598396 C19.26177089 134.29589361 17.74831662 132.71339523 16.2483139 131.11834526 C8.46620071 122.22721991 8.46620071 122.22721991 -1.7557373 117.10818481 C-5.18817691 117.05004346 -5.18817691 117.05004346 -8.29632568 117.62001038 C-12.63059749 118.22917336 -15.56779604 116.50281856 -19 114 C-24.88415006 109.03116217 -27.5591935 103.40806495 -28.3125 95.875 C-27.90233763 90.78898667 -26.68948326 86.36114202 -24 82 C-23.18055656 81.48910828 -23.18055656 81.48910828 -22.34455872 80.96789551 C-20.02222636 79.50908013 -18.6064205 78.23993267 -17 76 C-15.96917579 71.0235809 -16.11740192 66.06191095 -16.203125 61.00390625 C-16.20135551 59.52708633 -16.19606969 58.05026683 -16.18743896 56.57347107 C-16.17221357 52.69428442 -16.19597308 48.81640366 -16.23065186 44.93737793 C-16.28119206 38.73384656 -16.27942423 32.53037435 -16.26424408 26.32670403 C-16.26559988 24.16888654 -16.28788413 22.01204279 -16.31280518 19.85438538 C-16.38415886 7.47804476 -16.38415886 7.47804476 -13 2 C-8.54579342 -1.23942297 -5.24479233 -1.62111763 0 0 Z " fill="#f61c09" transform="translate(290,134)"/>
<path d="M0 0 C1.03253906 0.01804688 2.06507813 0.03609375 3.12890625 0.0546875 C4.27166016 0.08949219 4.27166016 0.08949219 5.4375 0.125 C9.19903383 14.38635486 1.72484987 31.18324626 -5.21875 43.43359375 C-8.83746324 49.40914996 -13.58359859 54.27395558 -18.5625 59.125 C-19.16835937 59.73988281 -19.77421875 60.35476563 -20.3984375 60.98828125 C-29.12573549 69.22599911 -39.90749038 72.64095508 -51.640625 72.39453125 C-64.18159394 71.53265191 -74.49941725 63.95333093 -82.94921875 55.01953125 C-94.38941658 41.58491636 -102.91346028 24.02397405 -102.5625 6.125 C-97.22101177 7.26121675 -91.94099533 8.53200003 -86.67504883 9.9777832 C-65.23237797 15.85197153 -50.2036431 16.15327023 -29.5 7.625 C-10.35058116 -0.23794439 -10.35058116 -0.23794439 0 0 Z " fill="#f61c09" transform="translate(144.5625,255.875)"/>
<path d="M0 0 C9.98158032 9.36565704 17.37942458 21.84347209 19.3125 35.375 C-20.2875 35.375 -59.8875 35.375 -100.6875 35.375 C-97.36327355 20.41598097 -91.43252488 10.86304372 -80.6875 0.375 C-80.10355469 -0.22957031 -79.51960938 -0.83414062 -78.91796875 -1.45703125 C-56.69575285 -22.77910675 -22.09733991 -18.1842693 0 0 Z " fill="#f61c09" transform="translate(136.6875,433.625)"/>
<path d="M0 0 C0.85098267 -0.00953201 1.70196533 -0.01906403 2.57873535 -0.02888489 C3.49441284 -0.02797348 4.41009033 -0.02706207 5.35351562 -0.02612305 C6.29658569 -0.03040817 7.23965576 -0.0346933 8.21130371 -0.03910828 C10.20515134 -0.04485112 12.19901991 -0.04535218 14.19287109 -0.04101562 C17.2480834 -0.03785389 20.3023292 -0.06132156 23.35742188 -0.08666992 C25.29361857 -0.08894269 27.22981787 -0.08964652 29.16601562 -0.08862305 C30.53953186 -0.10243767 30.53953186 -0.10243767 31.9407959 -0.11653137 C33.2172699 -0.10718819 33.2172699 -0.10718819 34.51953125 -0.09765625 C35.26771118 -0.09828568 36.01589111 -0.0989151 36.78674316 -0.0995636 C39.31867178 0.38066555 40.23341119 1.22732737 41.75976562 3.2746582 C41.57226562 5.8996582 41.57226562 5.8996582 40.75976562 8.2746582 C38.44555833 9.43176185 37.10091466 9.40719157 34.52539062 9.41992188 C33.21393066 9.42949165 33.21393066 9.42949165 31.87597656 9.43925476 C30.93012695 9.44036758 29.98427734 9.44148041 29.00976562 9.44262695 C28.04071289 9.44595535 27.07166016 9.44928375 26.07324219 9.45271301 C24.02214025 9.4577809 21.97103006 9.46012138 19.91992188 9.45996094 C16.77264934 9.46214925 13.62572618 9.48031144 10.47851562 9.49926758 C8.4889335 9.50220109 6.49934969 9.50418617 4.50976562 9.50512695 C3.09099121 9.51590523 3.09099121 9.51590523 1.64355469 9.52690125 C0.76924805 9.52382462 -0.10505859 9.52074799 -1.00585938 9.51757812 C-2.16263184 9.51971565 -2.16263184 9.51971565 -3.34277344 9.52189636 C-5.24023438 9.2746582 -5.24023438 9.2746582 -7.24023438 7.2746582 C-7.55273438 4.7746582 -7.55273438 4.7746582 -7.24023438 2.2746582 C-4.15579891 0.21836789 -3.48907047 0.02148616 0 0 Z " fill="#f61c09" transform="translate(411.240234375,224.725341796875)"/>
<path d="M0 0 C2.5 -0.3125 2.5 -0.3125 5 0 C7 2 7 2 7.24723816 3.94215393 C7.24510063 5.13009804 7.24510063 5.13009804 7.24291992 6.34204102 C7.24599655 7.2395961 7.24907318 8.13715118 7.25224304 9.06190491 C7.24505753 10.03276535 7.23787201 11.00362579 7.23046875 12.00390625 C7.22978142 13.49433693 7.22978142 13.49433693 7.2290802 15.01487732 C7.22605609 17.11727084 7.2181651 19.21966209 7.20581055 21.32202148 C7.18755565 24.55265169 7.1853008 27.78299549 7.18554688 31.01367188 C7.1806318 33.05208583 7.17480353 35.09049783 7.16796875 37.12890625 C7.16685593 38.10179092 7.1657431 39.0746756 7.16459656 40.07704163 C7.15821671 40.97144455 7.15183685 41.86584747 7.14526367 42.78735352 C7.14145187 43.57852066 7.13764008 44.36968781 7.13371277 45.18482971 C7 47 7 47 6 48 C3.0625 48.25 3.0625 48.25 0 48 C-2.04486961 44.93269559 -2.25125915 44.30807783 -2.25878906 40.8515625 C-2.26509338 40.02060059 -2.27139771 39.18963867 -2.27789307 38.33349609 C-2.2738446 37.43969238 -2.26979614 36.54588867 -2.265625 35.625 C-2.26753845 34.70412598 -2.2694519 33.78325195 -2.27142334 32.83447266 C-2.27278421 30.88769253 -2.26909463 28.94090331 -2.26074219 26.99414062 C-2.2500413 24.01151172 -2.26064082 21.02948514 -2.2734375 18.046875 C-2.27211589 16.15624867 -2.26955346 14.26562271 -2.265625 12.375 C-2.27169769 11.03429443 -2.27169769 11.03429443 -2.27789307 9.66650391 C-2.27158875 8.83554199 -2.26528442 8.00458008 -2.25878906 7.1484375 C-2.25719788 6.41802246 -2.25560669 5.68760742 -2.25396729 4.93505859 C-2 3 -2 3 0 0 Z " fill="#f61c09" transform="translate(282,349)"/>
<path d="M0 0 C2.5 -0.3125 2.5 -0.3125 5 0 C7 2 7 2 7.24723816 3.94215393 C7.24510063 5.13009804 7.24510063 5.13009804 7.24291992 6.34204102 C7.24599655 7.2395961 7.24907318 8.13715118 7.25224304 9.06190491 C7.24505753 10.03276535 7.23787201 11.00362579 7.23046875 12.00390625 C7.22978142 13.49433693 7.22978142 13.49433693 7.2290802 15.01487732 C7.22605609 17.11727084 7.2181651 19.21966209 7.20581055 21.32202148 C7.18755565 24.55265169 7.1853008 27.78299549 7.18554688 31.01367188 C7.1806318 33.05208583 7.17480353 35.09049783 7.16796875 37.12890625 C7.16685593 38.10179092 7.1657431 39.0746756 7.16459656 40.07704163 C7.15821671 40.97144455 7.15183685 41.86584747 7.14526367 42.78735352 C7.14145187 43.57852066 7.13764008 44.36968781 7.13371277 45.18482971 C7 47 7 47 6 48 C3.0625 48.25 3.0625 48.25 0 48 C-2.04486961 44.93269559 -2.25125915 44.30807783 -2.25878906 40.8515625 C-2.26509338 40.02060059 -2.27139771 39.18963867 -2.27789307 38.33349609 C-2.2738446 37.43969238 -2.26979614 36.54588867 -2.265625 35.625 C-2.26753845 34.70412598 -2.2694519 33.78325195 -2.27142334 32.83447266 C-2.27278421 30.88769253 -2.26909463 28.94090331 -2.26074219 26.99414062 C-2.2500413 24.01151172 -2.26064082 21.02948514 -2.2734375 18.046875 C-2.27211589 16.15624867 -2.26955346 14.26562271 -2.265625 12.375 C-2.27169769 11.03429443 -2.27169769 11.03429443 -2.27789307 9.66650391 C-2.27158875 8.83554199 -2.26528442 8.00458008 -2.25878906 7.1484375 C-2.25719788 6.41802246 -2.25560669 5.68760742 -2.25396729 4.93505859 C-2 3 -2 3 0 0 Z " fill="#f61c09" transform="translate(282,62)"/>
<path d="M0 0 C2 2 2 2 2.015625 4.703125 C0.62646865 9.21254024 -1.88652018 11.54843824 -5.25 14.75 C-5.82363281 15.32621094 -6.39726562 15.90242188 -6.98828125 16.49609375 C-10.07076504 19.50836151 -12.70557731 21.92828116 -17 23 C-19.3125 22.125 -19.3125 22.125 -21 21 C-20.81848262 15.29309366 -19.45608474 12.77491792 -15.38867188 8.8125 C-14.78603516 8.255625 -14.18339844 7.69875 -13.5625 7.125 C-12.96373047 6.54492188 -12.36496094 5.96484375 -11.74804688 5.3671875 C-7.82120624 1.60304911 -5.69808137 -0.4273561 0 0 Z " fill="#f61c09" transform="translate(403,110)"/>
<path d="M0 0 C2.47265625 -0.4765625 2.47265625 -0.4765625 6 0 C9.1561574 2.20218411 11.75753742 4.87520911 14.4375 7.625 C15.18193359 8.33785156 15.92636719 9.05070312 16.69335938 9.78515625 C18.67702802 11.78164639 20.44609782 13.65277474 22 16 C21.97265625 19.5234375 21.97265625 19.5234375 21 22 C18.734375 22.6796875 18.734375 22.6796875 16 23 C14.078125 21.8828125 14.078125 21.8828125 12.25 20.125 C11.57582031 19.47789062 10.90164063 18.83078125 10.20703125 18.1640625 C9.47871094 17.44992187 8.75039063 16.73578125 8 16 C6.73736328 14.89785156 6.73736328 14.89785156 5.44921875 13.7734375 C-0.82298918 8.09626018 -0.82298918 8.09626018 -1.34375 4.87109375 C-1.0625 2.9375 -1.0625 2.9375 0 0 Z " fill="#f61c09" transform="translate(383,327)"/>
<path d="M0 0 C2 2 2 2 2.046875 4.66796875 C0.566187 9.38075555 -2.24439513 11.93817791 -5.75 15.3125 C-6.68199219 16.26092773 -6.68199219 16.26092773 -7.6328125 17.22851562 C-10.26262935 19.81672144 -12.28646672 21.7309133 -15.765625 23.04296875 C-18 23 -18 23 -21 21 C-21.5067986 17.95388689 -21.36186975 16.5303735 -19.6105957 13.96362305 C-18.97210693 13.31949463 -18.33361816 12.67536621 -17.67578125 12.01171875 C-16.97646484 11.30595703 -16.27714844 10.60019531 -15.55664062 9.87304688 C-14.81607422 9.15181641 -14.07550781 8.43058594 -13.3125 7.6875 C-12.59126953 6.94693359 -11.87003906 6.20636719 -11.12695312 5.44335938 C-10.42119141 4.74404297 -9.71542969 4.04472656 -8.98828125 3.32421875 C-8.34415283 2.68572998 -7.70002441 2.04724121 -7.03637695 1.3894043 C-4.48154276 -0.35373938 -3.03418701 -0.42499197 0 0 Z " fill="#f61c09" transform="translate(186,327)"/>
<path d="M0 0 C5.22538172 0.78053022 7.6887756 3.97656648 11.23828125 7.69921875 C12.25825195 8.70952148 12.25825195 8.70952148 13.29882812 9.74023438 C16.78991318 13.30789358 18.74837897 15.43257067 19.42578125 20.51171875 C16.95078125 21.99671875 16.95078125 21.99671875 14.42578125 23.51171875 C9.80097723 21.04689853 6.31861142 17.83845608 2.61328125 14.19921875 C2.01580078 13.64298828 1.41832031 13.08675781 0.80273438 12.51367188 C-2.11365416 9.65061159 -3.46674834 8.31447597 -4.0234375 4.15625 C-3.43336257 0.68250455 -3.43336257 0.68250455 0 0 Z " fill="#f61c09" transform="translate(168.57421875,109.48828125)"/>
<path d="M0 0 C2.6875 0.4375 2.6875 0.4375 4.6484375 2.9921875 C6.84305583 6.49953288 8.46572015 10.16622304 10 14 C10.27650391 14.64646484 10.55300781 15.29292969 10.83789062 15.95898438 C12.40026526 19.82753418 13.07841949 22.44325526 11.6875 26.4375 C10.6875 27.4375 10.6875 27.4375 8.3125 27.75 C5.6875 27.4375 5.6875 27.4375 4.2578125 25.9453125 C2.07196 22.45447343 0.51373806 18.79789046 -1.0625 15 C-1.39121094 14.24912109 -1.71992188 13.49824219 -2.05859375 12.72460938 C-4.95304382 5.78159307 -4.95304382 5.78159307 -3.3125 1.4375 C-2.3125 0.4375 -2.3125 0.4375 0 0 Z " fill="#f61c09" transform="translate(339.3125,357.5625)"/>
<path d="M0 0 C0.763125 0.20625 1.52625 0.4125 2.3125 0.625 C3.38372855 4.54268556 3.24553704 6.71553587 1.6953125 10.453125 C1.33566406 11.33484375 0.97601563 12.2165625 0.60546875 13.125 C0.22003906 14.0325 -0.16539062 14.94 -0.5625 15.875 C-0.94019531 16.79796875 -1.31789063 17.7209375 -1.70703125 18.671875 C-4.50481673 25.44231673 -4.50481673 25.44231673 -5.6875 26.625 C-8.625 26.875 -8.625 26.875 -11.6875 26.625 C-13.6875 23.625 -13.6875 23.625 -13.5234375 21.48046875 C-12.3653242 17.5244836 -10.87696025 13.7484476 -9.3125 9.9375 C-8.85617187 8.78024414 -8.85617187 8.78024414 -8.390625 7.59960938 C-8.08898437 6.86162109 -7.78734375 6.12363281 -7.4765625 5.36328125 C-7.20537598 4.69337158 -6.93418945 4.02346191 -6.65478516 3.33325195 C-4.9437784 0.31156738 -3.37886706 -0.47146982 0 0 Z " fill="#f61c09" transform="translate(348.6875,74.375)"/>
<path d="M0 0 C3.62178039 1.37951189 3.86559236 1.90030066 5.484375 5.2421875 C6.18865572 6.94707836 6.86750042 8.66265067 7.5234375 10.38671875 C8.05517578 11.66385742 8.05517578 11.66385742 8.59765625 12.96679688 C10.40432529 17.47649391 11.73149638 21.25897662 11.1484375 26.19921875 C10.1484375 27.19921875 10.1484375 27.19921875 7.0859375 27.26171875 C6.1165625 27.24109375 5.1471875 27.22046875 4.1484375 27.19921875 C-5.71229107 8.05217299 -5.71229107 8.05217299 -4.8515625 2.19921875 C-2.8515625 0.19921875 -2.8515625 0.19921875 0 0 Z " fill="#f61c09" transform="translate(222.8515625,73.80078125)"/>
<path d="M0 0 C5.66053803 0.29192712 10.23774635 2.12822841 15.3125 4.4375 C16.02728516 4.75009766 16.74207031 5.06269531 17.47851562 5.38476562 C20.38228575 6.67928331 22.73296787 7.73296787 25 10 C25.125 12.625 25.125 12.625 25 15 C22.26929913 16.35610974 20.66789168 17.13392208 17.62817383 16.52441406 C16.82919678 16.19151367 16.03021973 15.85861328 15.20703125 15.515625 C14.32982422 15.15726562 13.45261719 14.79890625 12.54882812 14.4296875 C11.64583984 14.04039062 10.74285156 13.65109375 9.8125 13.25 C8.89791016 12.87617188 7.98332031 12.50234375 7.04101562 12.1171875 C0.31941372 9.31941372 0.31941372 9.31941372 -2 7 C-2.25 4.5 -2.25 4.5 -2 2 C-1.34 1.34 -0.68 0.68 0 0 Z " fill="#f61c09" transform="translate(415,280)"/>
<path d="M0 0 C1 1 1 1 1.0625 4.0625 C1.041875 5.031875 1.02125 6.00125 1 7 C-17.56169045 16.63628185 -17.56169045 16.63628185 -24 16 C-26 14 -26 14 -26.19921875 11.1484375 C-24.81970686 7.52665711 -24.29891809 7.28284514 -20.95703125 5.6640625 C-19.25214039 4.95978178 -17.53656808 4.28093708 -15.8125 3.625 C-14.96107422 3.27050781 -14.10964844 2.91601562 -13.23242188 2.55078125 C-8.72272484 0.74411221 -4.94024213 -0.58305888 0 0 Z " fill="#f61c09" transform="translate(439,163)"/>
<path d="M0 0 C1 1 1 1 1.30859375 3.48046875 C0.88849092 8.27176815 -0.91096795 11.99269579 -2.9375 16.3125 C-3.31068359 17.13556641 -3.68386719 17.95863281 -4.06835938 18.80664062 C-6.81950513 24.81950513 -6.81950513 24.81950513 -8 26 C-10.4375 26.1875 -10.4375 26.1875 -13 26 C-13.66 25.34 -14.32 24.68 -15 24 C-14.6995118 18.23942137 -12.79368852 13.39623969 -10.5625 8.125 C-10.09360352 6.96871094 -10.09360352 6.96871094 -9.61523438 5.7890625 C-7.14961386 -0.13259691 -6.32850112 -1.62269259 0 0 Z " fill="#f61c09" transform="translate(233,359)"/>
<path d="M0 0 C5.5945863 -0.46250952 9.64211702 1.11692178 14.6875 3.25 C15.44611328 3.55035156 16.20472656 3.85070312 16.98632812 4.16015625 C24.14239718 7.12869328 24.14239718 7.12869328 26 11 C25.1875 13.75 25.1875 13.75 24 16 C18.2822781 15.47211244 13.49129596 14.35747946 8.1875 12.1875 C7.53330078 11.93935547 6.87910156 11.69121094 6.20507812 11.43554688 C2.4709413 9.93655221 -0.14214978 8.66489984 -2 5 C-1.1875 2.25 -1.1875 2.25 0 0 Z " fill="#f61c09" transform="translate(131,163)"/>
</svg>